<?xml version="1.0" encoding="iso-8859-1"?>
<!-- Uploaded to: SVG Repo, www.svgrepo.com, Generator: SVG Repo Mixer Tools -->
<svg fill="#000000" height="800px" width="800px" version="1.1" id="Capa_1" xmlns="http://www.w3.org/2000/svg" xmlns:xlink="http://www.w3.org/1999/xlink" 
	 viewBox="0 0 493.458 493.458" xml:space="preserve">
<g>
	<g id="Icons_3_">
		<g>
			<path d="M63.296,238.09H94.01c5.236,0,9.472-4.234,9.472-9.472V9.463C103.482,4.235,99.247,0,94.01,0H63.296
				c-5.236,0-9.472,4.235-9.472,9.463v219.155C53.824,233.856,58.059,238.09,63.296,238.09z"/>
			<path d="M147.395,238.09h8.922c-0.093-2.118-0.305-4.22-0.305-6.36c0-22.009,5.255-43.176,15.019-62.199V9.463
				c0-5.228-4.24-9.463-9.478-9.463h-14.158c-5.237,0-9.472,4.235-9.472,9.463v219.155
				C137.924,233.856,142.158,238.09,147.395,238.09z"/>
			<path d="M257.073,9.463c0-5.228-4.241-9.463-9.479-9.463h-30.705c-5.238,0-9.473,4.235-9.473,9.463v115.574
				c14.755-11.823,31.611-20.262,49.656-25.086V9.463H257.073z"/>
			<path d="M238.771,231.721c0,2.166,0.372,4.251,0.63,6.369h8.193c5.237,0,9.479-4.234,9.479-9.472v-37.032
				c-0.825,0.728-1.748,1.3-2.538,2.085C244.364,203.839,238.771,217.35,238.771,231.721z"/>
			<path d="M334.818,101.913V9.463c0-5.228-4.236-9.463-9.472-9.463h-30.714c-5.236,0-9.472,4.235-9.472,9.463v86.059
				c2.457-0.129,4.898-0.355,7.392-0.355C307.13,95.167,321.341,97.533,334.818,101.913z"/>
			<path d="M292.553,177.928c-2.511,0-4.95,0.387-7.392,0.719v49.971c0,5.238,4.235,9.472,9.472,9.472h30.714
				c5.235,0,9.472-4.234,9.472-9.472V198.82c-1.358-1.739-2.619-3.532-4.2-5.117C320.434,183.534,306.919,177.928,292.553,177.928z"
				/>
			<path d="M394.84,0h-14.165c-5.237,0-9.472,4.235-9.472,9.463v110.758c6.304,4.46,12.354,9.382,17.929,14.961
				c5.654,5.664,10.67,11.798,15.18,18.207V9.463C404.311,4.235,400.076,0,394.84,0z"/>
			<path d="M453.141,0h-14.158c-5.237,0-9.472,4.235-9.472,9.463v219.155c0,5.238,4.234,9.472,9.472,9.472h14.158
				c5.237,0,9.473-4.234,9.473-9.472V9.463C462.614,4.235,458.379,0,453.141,0z"/>
			<path d="M371.576,152.742c-21.127-21.119-49.188-32.748-79.023-32.748c-29.841,0-57.884,11.62-78.981,32.715
				c-21.109,21.113-32.729,49.172-32.729,79.02c0,17.182,3.977,33.726,11.283,48.733L41.44,431.678
				c-14.129,14.136-14.129,37.05,0,51.183c6.792,6.791,15.988,10.597,25.574,10.597s18.795-3.807,25.568-10.589l150.521-151.028
				c15.212,7.533,32.009,11.615,49.461,11.615c29.841,0,57.902-11.623,79.012-32.724c21.108-21.103,32.735-49.158,32.735-79.002
				C404.294,201.9,392.674,173.845,371.576,152.742z M348.169,287.325c-14.854,14.846-34.604,23.026-55.604,23.026
				c-20.995,0-40.729-8.171-55.57-23.018c-14.856-14.855-23.05-34.606-23.05-55.613c0-20.997,8.182-40.749,23.033-55.604
				c14.841-14.84,34.575-23.017,55.575-23.017c20.995,0,40.746,8.186,55.616,23.049c14.856,14.846,23.034,34.592,23.034,55.589
				C371.203,252.733,363.025,272.479,348.169,287.325z"/>
		</g>
	</g>
</g>
</svg>